# xmcd CD database file
#
# Track frame offsets:
#	150
#	23531
#	49709
#	63015
#	88499
#	119105
#	146550
#	173883
#	201149
#	225473
#	246893
#	270668
#	290599
#
# Disc length: 4198 seconds
#
# Revision: 1
# Processed by: cddbd v1.5.2PL0 Copyright (c) Steve Scherf et al.
# Submitted via: CDex 1.70beta2
#
DISCID=bc10640d
DTITLE=Dee Dee Bridgewater - Red Earth
DYEAR=2007
DGENRE=Jazz
TTITLE0=Afro Blue
TTITLE1=Bad Spirits (Bani)
TTITLE2=Dee Dee
TTITLE3=Mama Don't Ever Go Away
TTITLE4=Footprints
TTITLE5=Children Go 'Round (Demissènw)
TTITLE6=The Griots (Sakhodougou)
TTITLE7=Oh My Love (Djarabi)
TTITLE8=Four Women
TTITLE9=No More (Bambo)
TTITLE10=Red Earth (Massane Cissè)
TTITLE11=Meanwhile
TTITLE12=Compared To What
EXTD=YEAR: 2007
EXTT0=
EXTT1=
EXTT2=
EXTT3=
EXTT4=
EXTT5=
EXTT6=
EXTT7=
EXTT8=
EXTT9=
EXTT10=
EXTT11=
EXTT12=
PLAYORDER=
